<svg width="160" 
  height="35" 
  viewBox="0 0 166 36" 
  fill="none" 
  xmlns="http://www.w3.org/2000/svg">
  <g clip-path="url(#clip0)">
    <path d="M0 22.93L1.73 21.19C2.5085 22.2986 3.539 23.2067 4.73679 23.8395C5.93458 24.4723 7.26545 24.8117 8.62 24.83C9.28655 24.914 9.96313 24.8657 10.611 24.688C11.2589 24.5102 11.8654 24.2065 12.3957 23.7941C12.9261 23.3817 13.3699 22.8687 13.7018 22.2846C14.0337 21.7005 14.2472 21.0567 14.33 20.39C14.3403 20.2535 14.3403 20.1165 14.33 19.98C14.33 16.75 11.39 15.49 8.33 14.18C4.74 12.67 1.33 11.18 1.33 6.73999C1.31663 4.97254 2.00325 3.27161 3.23988 2.00875C4.47651 0.745886 6.16265 0.0237193 7.93 -8.2631e-06H8.52C9.93504 -0.00994801 11.3346 0.29437 12.6178 0.890983C13.9009 1.4876 15.0356 2.36162 15.94 3.44999L14.42 4.99999C13.7256 4.1152 12.8366 3.40234 11.822 2.91675C10.8075 2.43116 9.69468 2.18589 8.57 2.19999C7.38856 2.07981 6.20774 2.43363 5.28705 3.18368C4.36636 3.93374 3.78114 5.01865 3.66 6.19999C3.66 6.31999 3.66 6.43999 3.66 6.55999C3.66 9.74999 6.66 10.94 9.73 12.24C13.12 13.65 16.73 15.24 16.73 19.89C16.7327 21.7819 15.9843 23.5975 14.6494 24.9381C13.3144 26.2787 11.5019 27.0347 9.61 27.04C9.35689 27.0552 9.10311 27.0552 8.85 27.04C7.1653 27.0362 5.50151 26.6667 3.97354 25.9571C2.44557 25.2475 1.08984 24.2147 0 22.93H0Z" 
      fill="white" />
    <path d="M20.21 17.59C20.199 15.1289 21.1568 12.7623 22.8764 11.0015C24.596 9.24075 26.9393 8.22725 29.4 8.17999C30.8884 8.15456 32.3587 8.5084 33.6726 9.20819C34.9865 9.90798 36.1006 10.9307 36.91 12.18V8.52999H39.14V26.68H36.91V23.06C36.102 24.3106 34.9881 25.3344 33.674 26.0343C32.3598 26.7343 30.8887 27.0873 29.4 27.06C26.9288 27.0127 24.5765 25.9909 22.8552 24.2171C21.1339 22.4434 20.1832 20.0615 20.21 17.59V17.59ZM36.91 17.59C36.9034 15.6693 36.1349 13.8298 34.7733 12.4752C33.4117 11.1206 31.5682 10.3617 29.6475 10.365C27.7269 10.3683 25.886 11.1336 24.5291 12.4929C23.1722 13.8522 22.41 15.6943 22.41 17.615C22.41 19.5356 23.1722 21.3778 24.5291 22.7371C25.886 24.0964 27.7269 24.8617 29.6475 24.865C31.5682 24.8683 33.4117 24.1093 34.7733 22.7548C36.1349 21.4002 36.9034 19.5606 36.91 17.64V17.59Z" 
      fill="white" />
    <path d="M48.29 5.28005V8.53005H53.21V10.53H48.29V26.68H46.06V10.55H43V8.55005H46.05V5.05005C45.9702 3.81165 46.3823 2.59177 47.1968 1.65553C48.0113 0.719283 49.1625 0.142329 50.4 0.0500488H51C51.7674 0.0706958 52.5281 0.198602 53.26 0.430049V2.47005C52.6282 2.19621 51.9485 2.05007 51.26 2.04005C50.877 2.02806 50.4954 2.09183 50.1371 2.22771C49.7788 2.36359 49.4509 2.56889 49.1721 2.83184C48.8934 3.09479 48.6693 3.4102 48.5128 3.75998C48.3562 4.10975 48.2703 4.48699 48.26 4.87005C48.27 5.00005 48.28 5.14005 48.29 5.28005Z" 
      fill="white" />
    <path d="M73.84 17.93H57.09C57.155 19.5009 57.7219 21.0095 58.7076 22.2343C59.6933 23.4591 61.0457 24.3356 62.5663 24.735C64.0869 25.1345 65.6954 25.0358 67.1558 24.4536C68.6162 23.8713 69.8514 22.8361 70.68 21.5L72.59 22.31C71.7741 23.7417 70.5921 24.9306 69.1652 25.7547C67.7382 26.5789 66.1178 27.0087 64.47 27C62.6164 27.0014 60.8036 26.456 59.2585 25.4319C57.7135 24.4078 56.5049 22.9507 55.7841 21.2429C55.0634 19.5352 54.8624 17.6528 55.2065 15.8314C55.5506 14.01 56.4244 12.3306 57.7185 11.0035C59.0126 9.67639 60.6695 8.76057 62.4816 8.37073C64.2938 7.98089 66.1807 8.13434 67.906 8.81188C69.6314 9.48941 71.1185 10.6609 72.1811 12.1797C73.2438 13.6985 73.8347 15.497 73.88 17.35L73.84 17.93ZM57.25 16.12H71.56C71.2361 14.4603 70.3452 12.9647 69.0399 11.8896C67.7346 10.8144 66.0961 10.2265 64.405 10.2265C62.7139 10.2265 61.0754 10.8144 59.7701 11.8896C58.4648 12.9647 57.5739 14.4603 57.25 16.12Z" 
      fill="white" />
    <path d="M83.71 4.88998V11.29H93.06V15.78H83.71V22.13H94.33V26.68H78.61V0.349976H94.33V4.88998H83.71Z" 
      fill="white" />
    <path d="M116 15.14V26.68H111.08V16C111.08 13.1 109.73 12.26 107.84 12.26C105.77 12.26 104.26 13.58 104.24 16.34V26.68H99.34V8.52996H104.24V11.08C104.838 10.1744 105.654 9.43399 106.614 8.92715C107.573 8.42031 108.645 8.16334 109.73 8.17996C113.58 8.17996 116 10.6 116 15.14Z" 
      fill="white" />
    <path d="M126.67 11.94V20.47C126.67 22.13 127.58 22.93 128.89 22.93H130.76V26.68H127.67C126.277 26.8436 124.875 26.4481 123.773 25.5802C122.671 24.7123 121.958 23.4428 121.79 22.05C121.762 21.7173 121.762 21.3828 121.79 21.05V11.94H118.93V8.53003H121.79V3.53003H126.69V8.53003H130.83V11.94H126.67Z" 
      fill="white" />
    <path d="M145.85 8.34998V13C142.04 13 139.85 14.38 139.85 18V26.68H134.97V8.52997H139.63V12C140.285 10.9259 141.196 10.0305 142.282 9.39371C143.367 8.75688 144.593 8.39832 145.85 8.34998V8.34998Z" 
      fill="white" />
    <path d="M165.87 8.53003L155.2 35.21H150.2L154 25.6L147 8.53003H152.37L156.57 21L160.75 8.56003L165.87 8.53003Z" 
      fill="white" />
  </g>
  <defs>
    <clipPath id="clip0">
      <rect width="165.87" 
        height="35.23" 
        fill="white" />
    </clipPath>
  </defs>
</svg>
